<svg xmlns="http://www.w3.org/2000/svg" xmlns:xlink="http://www.w3.org/1999/xlink" version="1.1" id="Layer_1" x="0px" y="0px" width="100px" height="100px" viewBox="0 0 100 100" enable-background="new 0 0 100 100" xml:space="preserve" fill="#e67e22">
<g>
	<path d="M47.662,85.675V36.3c0,0-6.178,0.12-6.178-9.266c0-10.037,0-13.896,0-13.896h4.246v12.739h3.089l0.025-12.667l3.354,0.025   l0.031,12.642h2.896V13.219h4.055c0,0,0,6.673,0,14.33s-5.149,8.879-5.149,8.879l0.065,49.231L47.662,85.675z" />
	<path d="M26.748,31.3c0,0,4.719,4.719,10.134,10.134s2.638,9.919,2.638,9.919L70.584,82.33l-4.563,4.532L34.923,55.765   c0,0-4.281,4.453-10.918-2.184c-7.098-7.098-9.827-9.827-9.827-9.827s-4.581-3.59,0-8.17c0,0,1.237-1.238,4.034-4.034   C21.761,28,23.979,28.53,26.748,31.3z"/>
	<path d="M86.858,35.24L35.05,86.862l-3.552-3.608l20.247-20.247c0,0,7.938-10.42,15.528-22.242   C67.272,40.767,76.555,26.437,86.858,35.24z"/>
</g>
</svg>